<svg width="15" height="13" viewBox="0 0 15 13" fill="none" xmlns="http://www.w3.org/2000/svg">
<path d="M6.19724 11.7785C5.7789 11.7785 5.85399 11.614 5.70382 11.2081L4.481 7.08425L12.0754 2.23648L12.9657 2.47777L12.2255 4.53972L6.19724 11.7785Z" fill="#1C2C33"/>
<path d="M6.19724 11.7785C6.51903 11.7785 6.65848 11.6249 6.84083 11.4494C7.11972 11.1752 10.7024 7.6107 10.7024 7.6107L8.50344 7.06232L6.4654 8.37845L6.19724 11.6688L6.19724 11.7785Z" fill="#1C2C33"/>
<path d="M6.41177 8.42233L11.6034 12.3378C12.1934 12.6669 12.6224 12.5024 12.7726 11.7785L14.8857 1.60034C15.1002 0.71195 14.5532 0.317109 13.9847 0.580336L1.58484 5.47198C0.737441 5.82296 0.748167 6.30554 1.43466 6.51393L4.62044 7.53394L11.9896 2.78487C12.3328 2.56551 12.6546 2.68616 12.3972 2.92745L6.41177 8.42233Z" fill="url(#paint0_linear_62_76)"/>
<defs>
<linearGradient id="paint0_linear_62_76" x1="9.52149" y1="6.15802" x2="12.2898" y2="10.4898" gradientUnits="userSpaceOnUse">
<stop stop-color="#1C2C33"/>
</linearGradient>
</defs>
</svg>
